TITLE ""
FILE "P1Q_t_1001-1009.mp3" MP3
  TRACK 01 AUDIO
    TITLE "P1Q_t_1001-1009_01"
    INDEX 01 00:00:00
  TRACK 02 AUDIO
    TITLE "P1Q_t_1001-1009_02"
    INDEX 01 00:03:28
  TRACK 03 AUDIO
    TITLE "P1Q_t_1001-1009_03"
    INDEX 01 00:03:73
  TRACK 04 AUDIO
    TITLE "P1Q_t_1001-1009_04"
    INDEX 01 00:05:51
  TRACK 05 AUDIO
    TITLE "P1Q_t_1001-1009_05"
    INDEX 01 00:06:25
  TRACK 06 AUDIO
    TITLE "P1Q_t_1001-1009_06"
    INDEX 01 00:07:28
  TRACK 07 AUDIO
    TITLE "P1Q_t_1001-1009_07"
    INDEX 01 00:07:73
  TRACK 08 AUDIO
    TITLE "P1Q_t_1001-1009_08"
    INDEX 01 00:09:31
  TRACK 09 AUDIO
    TITLE "P1Q_t_1001-1009_09"
    INDEX 01 00:09:50
  TRACK 10 AUDIO
    TITLE "P1Q_t_1001-1009_10"
    INDEX 01 00:11:30
  TRACK 11 AUDIO
    TITLE "P1Q_t_1001-1009_11"
    INDEX 01 00:11:49
  TRACK 12 AUDIO
    TITLE "P1Q_t_1001-1009_12"
    INDEX 01 00:15:29
  TRACK 13 AUDIO
    TITLE "P1Q_t_1001-1009_13"
    INDEX 01 00:15:75
  TRACK 14 AUDIO
    TITLE "P1Q_t_1001-1009_14"
    INDEX 01 00:17:05
  TRACK 15 AUDIO
    TITLE "P1Q_t_1001-1009_15"
    INDEX 01 00:17:24
  TRACK 16 AUDIO
    TITLE "P1Q_t_1001-1009_16"
    INDEX 01 00:20:37
  TRACK 17 AUDIO
    TITLE "P1Q_t_1001-1009_17"
    INDEX 01 00:20:54
  TRACK 18 AUDIO
    TITLE "P1Q_t_1001-1009_18"
    INDEX 01 00:24:56
  TRACK 19 AUDIO
    TITLE "P1Q_t_1001-1009_19"
    INDEX 01 00:25:28
  TRACK 20 AUDIO
    TITLE "P1Q_t_1001-1009_20"
    INDEX 01 00:26:47
  TRACK 21 AUDIO
    TITLE "P1Q_t_1001-1009_21"
    INDEX 01 00:26:68
  TRACK 22 AUDIO
    TITLE "P1Q_t_1001-1009_22"
    INDEX 01 00:30:02
  TRACK 23 AUDIO
    TITLE "P1Q_t_1001-1009_23"
    INDEX 01 00:30:21
  TRACK 24 AUDIO
    TITLE "P1Q_t_1001-1009_24"
    INDEX 01 00:34:25
  TRACK 25 AUDIO
    TITLE "P1Q_t_1001-1009_25"
    INDEX 01 00:34:72
  TRACK 26 AUDIO
    TITLE "P1Q_t_1001-1009_26"
    INDEX 01 00:36:14
  TRACK 27 AUDIO
    TITLE "P1Q_t_1001-1009_27"
    INDEX 01 00:36:36
  TRACK 28 AUDIO
    TITLE "P1Q_t_1001-1009_28"
    INDEX 01 00:39:46
  TRACK 29 AUDIO
    TITLE "P1Q_t_1001-1009_29"
    INDEX 01 00:39:65
  TRACK 30 AUDIO
    TITLE "P1Q_t_1001-1009_30"
    INDEX 01 00:42:67
  TRACK 31 AUDIO
    TITLE "P1Q_t_1001-1009_31"
    INDEX 01 00:43:40
  TRACK 32 AUDIO
    TITLE "P1Q_t_1001-1009_32"
    INDEX 01 00:44:57
  TRACK 33 AUDIO
    TITLE "P1Q_t_1001-1009_33"
    INDEX 01 00:45:01
  TRACK 34 AUDIO
    TITLE "P1Q_t_1001-1009_34"
    INDEX 01 00:47:37
  TRACK 35 AUDIO
    TITLE "P1Q_t_1001-1009_35"
    INDEX 01 00:47:57
  TRACK 36 AUDIO
    TITLE "P1Q_t_1001-1009_36"
    INDEX 01 00:51:41
  TRACK 37 AUDIO
    TITLE "P1Q_t_1001-1009_37"
    INDEX 01 00:52:11
  TRACK 38 AUDIO
    TITLE "P1Q_t_1001-1009_38"
    INDEX 01 00:53:24
  TRACK 39 AUDIO
    TITLE "P1Q_t_1001-1009_39"
    INDEX 01 00:53:48
  TRACK 40 AUDIO
    TITLE "P1Q_t_1001-1009_40"
    INDEX 01 00:57:63
  TRACK 41 AUDIO
    TITLE "P1Q_t_1001-1009_41"
    INDEX 01 00:58:08
  TRACK 42 AUDIO
    TITLE "P1Q_t_1001-1009_42"
    INDEX 01 01:02:49
  TRACK 43 AUDIO
    TITLE "P1Q_t_1001-1009_43"
    INDEX 01 01:03:19
  TRACK 44 AUDIO
    TITLE "P1Q_t_1001-1009_44"
    INDEX 01 01:04:42
  TRACK 45 AUDIO
    TITLE "P1Q_t_1001-1009_45"
    INDEX 01 01:04:61
  TRACK 46 AUDIO
    TITLE "P1Q_t_1001-1009_46"
    INDEX 01 01:10:05
  TRACK 47 AUDIO
    TITLE "P1Q_t_1001-1009_47"
    INDEX 01 01:10:25
  TRACK 48 AUDIO
    TITLE "P1Q_t_1001-1009_48"
    INDEX 01 01:15:43
  TRACK 49 AUDIO
    TITLE "P1Q_t_1001-1009_49"
    INDEX 01 01:16:13
  TRACK 50 AUDIO
    TITLE "P1Q_t_1001-1009_50"
    INDEX 01 01:17:36
  TRACK 51 AUDIO
    TITLE "P1Q_t_1001-1009_51"
    INDEX 01 01:17:60
  TRACK 52 AUDIO
    TITLE "P1Q_t_1001-1009_52"
    INDEX 01 01:20:25
  TRACK 53 AUDIO
    TITLE "P1Q_t_1001-1009_53"
    INDEX 01 01:20:45
  TRACK 54 AUDIO
    TITLE "P1Q_t_1001-1009_54"
    INDEX 01 01:25:16
  TRACK 55 AUDIO
    TITLE "P1Q_t_1001-1009_55"
    INDEX 01 01:25:61
  TRACK 56 AUDIO
    TITLE "P1Q_t_1001-1009_56"
    INDEX 01 01:26:73
  TRACK 57 AUDIO
    TITLE "P1Q_t_1001-1009_57"
    INDEX 01 01:27:17
  TRACK 58 AUDIO
    TITLE "P1Q_t_1001-1009_58"
    INDEX 01 01:30:27
  TRACK 59 AUDIO
    TITLE "P1Q_t_1001-1009_59"
    INDEX 01 01:30:47
  TRACK 60 AUDIO
    TITLE "P1Q_t_1001-1009_60"
    INDEX 01 01:35:64
